<svg id="Layer_1" data-name="Layer 1" xmlns="http://www.w3.org/2000/svg" viewBox="0 0 79.24 80.38"><defs><style>.cls-1,.cls-4,.cls-5,.cls-6{fill:none;stroke-miterlimit:10;}.cls-1,.cls-4,.cls-6{stroke:#2c314f;}.cls-2,.cls-7{fill:#2c314f;}.cls-3{fill:#ababab;}.cls-4{stroke-width:4px;}.cls-5{stroke:#ababab;stroke-width:3px;}.cls-6{stroke-width:5px;}.cls-7{font-size:8px;font-family:Montserrat-Regular, Montserrat;}.cls-8{letter-spacing:-0.01em;}</style></defs><title>!pineapple</title><ellipse class="cls-1" cx="39.67" cy="32.11" rx="10.94" ry="12.88"/><rect class="cls-2" x="32.78" y="23.16" width="0.37" height="2.08" rx="0.15" ry="0.15" transform="translate(30.74 -17.68) rotate(45)"/><rect class="cls-2" x="31.58" y="23.16" width="0.37" height="2.08" rx="0.15" ry="0.15" transform="translate(-3.83 28.09) rotate(-45)"/><rect class="cls-2" x="31.71" y="37.44" width="0.37" height="2.08" rx="0.15" ry="0.15" transform="translate(40.52 -12.74) rotate(45)"/><rect class="cls-2" x="30.51" y="37.44" width="0.37" height="2.08" rx="0.15" ry="0.15" transform="translate(-14.24 31.52) rotate(-45)"/><rect class="cls-3" x="32.27" y="28.11" width="0.37" height="2.08" rx="0.15" ry="0.15" transform="translate(34.09 -15.86) rotate(45)"/><rect class="cls-2" x="31.06" y="28.11" width="0.37" height="2.08" rx="0.15" ry="0.15" transform="translate(-7.49 29.18) rotate(-45)"/><rect class="cls-2" x="31.28" y="41.45" width="0.37" height="2.08" rx="0.15" ry="0.15" transform="translate(43.24 -11.26) rotate(45)"/><rect class="cls-2" x="30.08" y="41.45" width="0.37" height="2.08" rx="0.15" ry="0.15" transform="translate(-17.21 32.39) rotate(-45)"/><rect class="cls-2" x="38.16" y="36.62" width="0.37" height="2.08" rx="0.15" ry="0.15" transform="translate(41.83 -17.54) rotate(45)"/><rect class="cls-2" x="36.96" y="36.62" width="0.37" height="2.08" rx="0.15" ry="0.15" transform="translate(-11.78 35.84) rotate(-45)"/><rect class="cls-2" x="39.57" y="32.31" width="0.37" height="2.08" rx="0.15" ry="0.15" transform="translate(39.19 -19.8) rotate(45)"/><rect class="cls-2" x="38.36" y="32.31" width="0.37" height="2.08" rx="0.15" ry="0.15" transform="translate(-8.32 35.57) rotate(-45)"/><rect class="cls-2" x="38.21" y="26.88" width="0.37" height="2.08" rx="0.15" ry="0.15" transform="translate(34.96 -20.43) rotate(45)"/><rect class="cls-2" x="37" y="26.88" width="0.37" height="2.08" rx="0.15" ry="0.15" transform="translate(-4.88 33.02) rotate(-45)"/><rect class="cls-2" x="41.45" y="24.49" width="0.37" height="2.08" rx="0.15" ry="0.15" transform="translate(34.22 -23.42) rotate(45)"/><rect class="cls-2" x="40.25" y="24.49" width="0.37" height="2.08" rx="0.15" ry="0.15" transform="translate(-2.24 34.61) rotate(-45)"/><rect class="cls-2" x="44.23" y="29.45" width="0.37" height="2.08" rx="0.15" ry="0.15" transform="translate(38.54 -23.93) rotate(45)"/><rect class="cls-2" x="43.02" y="29.45" width="0.37" height="2.08" rx="0.15" ry="0.15" transform="translate(-4.93 38.03) rotate(-45)"/><rect class="cls-2" x="28.29" y="30.51" width="0.37" height="2.08" rx="0.15" ry="0.15" transform="translate(34.62 -12.35) rotate(45)"/><rect class="cls-2" x="27.09" y="30.51" width="0.37" height="2.08" rx="0.15" ry="0.15" transform="translate(-10.35 27.07) rotate(-45)"/><rect class="cls-2" x="29.7" y="25.85" width="0.37" height="2.08" rx="0.15" ry="0.15" transform="translate(31.74 -14.71) rotate(45)"/><rect class="cls-2" x="28.5" y="25.85" width="0.37" height="2.08" rx="0.15" ry="0.15" transform="translate(-6.64 26.7) rotate(-45)"/><rect class="cls-2" x="34.31" y="31.15" width="0.37" height="2.08" rx="0.15" ry="0.15" transform="translate(36.84 -16.42) rotate(45)"/><rect class="cls-2" x="33.11" y="31.15" width="0.37" height="2.08" rx="0.15" ry="0.15" transform="translate(-9.04 31.52) rotate(-45)"/><rect class="cls-3" x="27.94" y="33.89" width="0.37" height="2.08" rx="0.15" ry="0.15" transform="translate(36.91 -11.11) rotate(45)"/><rect class="cls-3" x="26.74" y="33.89" width="0.37" height="2.08" rx="0.15" ry="0.15" transform="translate(-12.84 27.81) rotate(-45)"/><rect class="cls-2" x="43.88" y="35.46" width="0.37" height="2.08" rx="0.15" ry="0.15" transform="translate(42.69 -21.92) rotate(45)"/><rect class="cls-2" x="42.68" y="35.46" width="0.37" height="2.08" rx="0.15" ry="0.15" transform="translate(-9.29 39.55) rotate(-45)"/><rect class="cls-2" x="41.37" y="39.87" width="0.37" height="2.08" rx="0.15" ry="0.15" transform="translate(45.07 -18.85) rotate(45)"/><rect class="cls-2" x="40.16" y="39.87" width="0.37" height="2.08" rx="0.15" ry="0.15" transform="translate(-13.13 39.06) rotate(-45)"/><rect class="cls-2" x="37.31" y="42.81" width="0.37" height="2.08" rx="0.15" ry="0.15" transform="translate(45.96 -15.12) rotate(45)"/><rect class="cls-2" x="36.1" y="42.81" width="0.37" height="2.08" rx="0.15" ry="0.15" transform="translate(-16.41 37.05) rotate(-45)"/><path class="cls-2" d="M47.32,9.12s-10.87,9.76-7.4,11.42S47.32,9.12,47.32,9.12Z" transform="translate(3.97 -1.45)"/><path class="cls-2" d="M35.8,6.49s-3.66,14.15.14,13.61S35.8,6.49,35.8,6.49Z" transform="translate(3.97 -1.45)"/><path class="cls-2" d="M24.65,9.12s10.87,9.76,7.4,11.42S24.65,9.12,24.65,9.12Z" transform="translate(3.97 -1.45)"/><rect class="cls-2" x="36.67" y="21.66" width="0.37" height="2.08" rx="0.15" ry="0.15" transform="translate(30.81 -20.87) rotate(45)"/><rect class="cls-2" x="35.46" y="21.66" width="0.37" height="2.08" rx="0.15" ry="0.15" transform="translate(-1.63 30.4) rotate(-45)"/><circle class="cls-4" cx="39.74" cy="25.56" r="23.56"/><line class="cls-5" x1="24.58" y1="43.59" x2="24.58" y2="43.59"/><line class="cls-5" x1="54.63" y1="7.3" x2="54.63" y2="7.3"/><line class="cls-6" x1="23.27" y1="42.4" x2="56.58" y2="9.09"/><text class="cls-7" transform="translate(15.05 60.09)">!<tspan class="cls-8" x="2.08" y="0">P</tspan><tspan x="7.74" y="0">INEA</tspan><tspan class="cls-8" x="27.75" y="0">PP</tspan><tspan x="39.08" y="0">LE</tspan><tspan x="-1.43" y="8">MESSENGER</tspan></text><path class="cls-2" d="M19,44.73a5.68,5.68,0,0,0,3.17,1.45c.8.1.79-1.15,0-1.25a4.22,4.22,0,0,1-2.29-1.08c-.59-.54-1.48.34-.88.88Z" transform="translate(3.97 -1.45)"/></svg>