<svg id="Layer_1" data-name="Layer 1" xmlns="http://www.w3.org/2000/svg" viewBox="0 0 53.85 67.68"><defs><style>.cls-1{fill:#ababab;}.cls-2{fill:none;stroke:#ababab;stroke-miterlimit:10;stroke-width:2px;}</style></defs><title>trash</title><rect class="cls-1" x="10.82" y="65.71" width="32.21" height="1.96" rx="0.98" ry="0.98"/><path class="cls-1" d="M58.84,11.24,51.11,68.29c-.09.69-.61,1.16-1.14,1h0a1.29,1.29,0,0,1-.8-1.48l7.74-57.05c.09-.69.61-1.16,1.14-1h0A1.29,1.29,0,0,1,58.84,11.24Z" transform="translate(-8.08 -1.67)"/><path class="cls-1" d="M11.19,11.24l7.74,57.05c.09.69.61,1.16,1.14,1h0a1.29,1.29,0,0,0,.8-1.48L13.13,10.79c-.09-.69-.61-1.16-1.14-1h0A1.29,1.29,0,0,0,11.19,11.24Z" transform="translate(-8.08 -1.67)"/><path class="cls-1" d="M20.85,19.6,26.2,59a1.29,1.29,0,0,1-.8,1.48h0c-.53.12-1-.34-1.14-1L18.92,20a1.29,1.29,0,0,1,.8-1.48h0C20.25,18.45,20.76,18.91,20.85,19.6Z" transform="translate(-8.08 -1.67)"/><rect class="cls-1" y="5.23" width="53.85" height="1.96" rx="0.98" ry="0.98"/><path class="cls-1" d="M49.16,19.6,43.82,59a1.29,1.29,0,0,0,.8,1.48h0c.53.12,1-.34,1.14-1L51.1,20a1.29,1.29,0,0,0-.8-1.48h0C49.77,18.45,49.26,18.91,49.16,19.6Z" transform="translate(-8.08 -1.67)"/><rect class="cls-1" x="13.71" y="38.26" width="42.59" height="1.96" rx="0.98" ry="0.98" transform="translate(-12.31 72.58) rotate(-90)"/><rect class="cls-2" x="18.46" y="1" width="16.94" height="5.21" rx="1.64" ry="1.64"/></svg>